<?xml version="1.0" encoding="UTF-8" standalone="no"?>
<!-- Created with Inkscape (http://www.inkscape.org/) -->

<svg
   width="151.26012mm"
   height="110.9194mm"
   viewBox="0 0 151.26012 110.9194"
   version="1.1"
   id="svg5"
   inkscape:version="1.1.2 (b8e25be833, 2022-02-05)"
   sodipodi:docname="Lilly 1984 (Icon).svg"
   xmlns:inkscape="http://www.inkscape.org/namespaces/inkscape"
   xmlns:sodipodi="http://sodipodi.sourceforge.net/DTD/sodipodi-0.dtd"
   xmlns="http://www.w3.org/2000/svg"
   xmlns:svg="http://www.w3.org/2000/svg">
  <sodipodi:namedview
     id="namedview7"
     pagecolor="#ffffff"
     bordercolor="#666666"
     borderopacity="1.0"
     inkscape:pageshadow="2"
     inkscape:pageopacity="0.0"
     inkscape:pagecheckerboard="0"
     inkscape:document-units="mm"
     showgrid="false"
     inkscape:zoom="0.32026164"
     inkscape:cx="-117.09176"
     inkscape:cy="46.836704"
     inkscape:window-width="1920"
     inkscape:window-height="1017"
     inkscape:window-x="-8"
     inkscape:window-y="-8"
     inkscape:window-maximized="1"
     inkscape:current-layer="layer1" />
  <defs
     id="defs2">
    <clipPath
       id="clp47">
      <path
         d="M 0.03,793.02 H 595.05 V 0 H 0.03 Z"
         id="path10279" />
    </clipPath>
    <clipPath
       id="clp46">
      <path
         d="M -1,794 H 596 V -2 H -1 Z"
         id="path10273" />
    </clipPath>
    <clipPath
       id="clp45">
      <path
         d="m 396.11,638.75 h 81.11 v -23.7 h -81.11 z"
         id="path10267" />
    </clipPath>
    <clipPath
       id="clp44">
      <path
         d="m 396.39,617.03 h 81.08 v 19.75 h -81.08 z"
         id="path10261" />
    </clipPath>
    <clipPath
       id="clp52">
      <path
         d="M 0.03,793.02 H 595.05 V 0 H 0.03 Z"
         id="path10312" />
    </clipPath>
    <clipPath
       id="clp51">
      <path
         d="M -1,794 H 596 V -2 H -1 Z"
         id="path10306" />
    </clipPath>
    <clipPath
       id="clp50">
      <path
         d="m 396.11,638.75 h 81.11 v -23.7 h -81.11 z"
         id="path10300" />
    </clipPath>
    <clipPath
       id="clp49">
      <path
         d="m 396.39,617.03 h 81.08 v 19.75 h -81.08 z"
         id="path10294" />
    </clipPath>
    <clipPath
       id="clp57">
      <path
         d="M 0.03,793.02 H 595.05 V 0 H 0.03 Z"
         id="path10345" />
    </clipPath>
    <clipPath
       id="clp56">
      <path
         d="M -1,794 H 596 V -2 H -1 Z"
         id="path10339" />
    </clipPath>
    <clipPath
       id="clp55">
      <path
         d="m 396.11,638.75 h 81.11 v -23.7 h -81.11 z"
         id="path10333" />
    </clipPath>
    <clipPath
       id="clp54">
      <path
         d="m 396.39,617.03 h 81.08 v 19.75 h -81.08 z"
         id="path10327" />
    </clipPath>
    <clipPath
       id="clp62">
      <path
         d="M 0.03,793.02 H 595.05 V 0 H 0.03 Z"
         id="path10378" />
    </clipPath>
    <clipPath
       id="clp61">
      <path
         d="M -1,794 H 596 V -2 H -1 Z"
         id="path10372" />
    </clipPath>
    <clipPath
       id="clp60">
      <path
         d="m 396.11,638.75 h 81.11 v -23.7 h -81.11 z"
         id="path10366" />
    </clipPath>
    <clipPath
       id="clp59">
      <path
         d="m 396.39,617.03 h 81.08 v 19.75 h -81.08 z"
         id="path10360" />
    </clipPath>
    <clipPath
       id="clp67">
      <path
         d="M 0.03,793.02 H 595.05 V 0 H 0.03 Z"
         id="path10411" />
    </clipPath>
    <clipPath
       id="clp66">
      <path
         d="M -1,794 H 596 V -2 H -1 Z"
         id="path10405" />
    </clipPath>
    <clipPath
       id="clp65">
      <path
         d="m 396.11,638.75 h 81.11 v -23.7 h -81.11 z"
         id="path10399" />
    </clipPath>
    <clipPath
       id="clp64">
      <path
         d="m 396.39,617.03 h 81.08 v 19.75 h -81.08 z"
         id="path10393" />
    </clipPath>
    <clipPath
       id="clp72">
      <path
         d="M 0.03,793.02 H 595.05 V 0 H 0.03 Z"
         id="path10444" />
    </clipPath>
    <clipPath
       id="clp71">
      <path
         d="M -1,794 H 596 V -2 H -1 Z"
         id="path10438" />
    </clipPath>
    <clipPath
       id="clp70">
      <path
         d="m 396.11,638.75 h 81.11 v -23.7 h -81.11 z"
         id="path10432" />
    </clipPath>
    <clipPath
       id="clp69">
      <path
         d="m 396.39,617.03 h 81.08 v 19.75 h -81.08 z"
         id="path10426" />
    </clipPath>
    <clipPath
       id="clp77">
      <path
         d="M 0.03,793.02 H 595.05 V 0 H 0.03 Z"
         id="path10477" />
    </clipPath>
    <clipPath
       id="clp76">
      <path
         d="M -1,794 H 596 V -2 H -1 Z"
         id="path10471" />
    </clipPath>
    <clipPath
       id="clp75">
      <path
         d="m 396.11,638.75 h 81.11 v -23.7 h -81.11 z"
         id="path10465" />
    </clipPath>
    <clipPath
       id="clp74">
      <path
         d="m 396.39,617.03 h 81.08 v 19.75 h -81.08 z"
         id="path10459" />
    </clipPath>
    <clipPath
       id="clp82">
      <path
         d="M 0.03,793.02 H 595.05 V 0 H 0.03 Z"
         id="path10510" />
    </clipPath>
    <clipPath
       id="clp81">
      <path
         d="M -1,794 H 596 V -2 H -1 Z"
         id="path10504" />
    </clipPath>
    <clipPath
       id="clp80">
      <path
         d="m 396.11,638.75 h 81.11 v -23.7 h -81.11 z"
         id="path10498" />
    </clipPath>
    <clipPath
       id="clp79">
      <path
         d="m 396.39,617.03 h 81.08 v 19.75 h -81.08 z"
         id="path10492" />
    </clipPath>
    <clipPath
       id="clp87">
      <path
         d="M 0.03,793.02 H 595.05 V 0 H 0.03 Z"
         id="path10543" />
    </clipPath>
    <clipPath
       id="clp86">
      <path
         d="M -1,794 H 596 V -2 H -1 Z"
         id="path10537" />
    </clipPath>
    <clipPath
       id="clp85">
      <path
         d="m 396.11,638.75 h 81.11 v -23.7 h -81.11 z"
         id="path10531" />
    </clipPath>
    <clipPath
       id="clp84">
      <path
         d="m 396.39,617.03 h 81.08 v 19.75 h -81.08 z"
         id="path10525" />
    </clipPath>
    <clipPath
       id="clp92">
      <path
         d="M 0.03,793.02 H 595.05 V 0 H 0.03 Z"
         id="path10576" />
    </clipPath>
    <clipPath
       id="clp91">
      <path
         d="M -1,794 H 596 V -2 H -1 Z"
         id="path10570" />
    </clipPath>
    <clipPath
       id="clp90">
      <path
         d="m 396.11,638.75 h 81.11 v -23.7 h -81.11 z"
         id="path10564" />
    </clipPath>
    <clipPath
       id="clp89">
      <path
         d="m 396.39,617.03 h 81.08 v 19.75 h -81.08 z"
         id="path10558" />
    </clipPath>
    <clipPath
       id="clp97">
      <path
         d="M 0.03,793.02 H 595.05 V 0 H 0.03 Z"
         id="path10609" />
    </clipPath>
    <clipPath
       id="clp96">
      <path
         d="M -1,794 H 596 V -2 H -1 Z"
         id="path10603" />
    </clipPath>
    <clipPath
       id="clp95">
      <path
         d="m 396.11,638.75 h 81.11 v -23.7 h -81.11 z"
         id="path10597" />
    </clipPath>
    <clipPath
       id="clp94">
      <path
         d="m 396.39,617.03 h 81.08 v 19.75 h -81.08 z"
         id="path10591" />
    </clipPath>
    <clipPath
       id="clp102">
      <path
         d="M 0.03,793.02 H 595.05 V 0 H 0.03 Z"
         id="path10642" />
    </clipPath>
    <clipPath
       id="clp101">
      <path
         d="M -1,794 H 596 V -2 H -1 Z"
         id="path10636" />
    </clipPath>
    <clipPath
       id="clp100">
      <path
         d="m 396.11,638.75 h 81.11 v -23.7 h -81.11 z"
         id="path10630" />
    </clipPath>
    <clipPath
       id="clp99">
      <path
         d="m 396.39,617.03 h 81.08 v 19.75 h -81.08 z"
         id="path10624" />
    </clipPath>
    <clipPath
       id="clp107">
      <path
         d="M 0.03,793.02 H 595.05 V 0 H 0.03 Z"
         id="path10675" />
    </clipPath>
    <clipPath
       id="clp106">
      <path
         d="M -1,794 H 596 V -2 H -1 Z"
         id="path10669" />
    </clipPath>
    <clipPath
       id="clp105">
      <path
         d="m 396.11,638.75 h 81.11 v -23.7 h -81.11 z"
         id="path10663" />
    </clipPath>
    <clipPath
       id="clp104">
      <path
         d="m 396.39,617.03 h 81.08 v 19.75 h -81.08 z"
         id="path10657" />
    </clipPath>
    <clipPath
       id="clp112">
      <path
         d="M 0.03,793.02 H 595.05 V 0 H 0.03 Z"
         id="path10708" />
    </clipPath>
    <clipPath
       id="clp111">
      <path
         d="M -1,794 H 596 V -2 H -1 Z"
         id="path10702" />
    </clipPath>
    <clipPath
       id="clp110">
      <path
         d="m 396.11,638.75 h 81.11 v -23.7 h -81.11 z"
         id="path10696" />
    </clipPath>
    <clipPath
       id="clp109">
      <path
         d="m 396.39,617.03 h 81.08 v 19.75 h -81.08 z"
         id="path10690" />
    </clipPath>
    <clipPath
       id="clp117">
      <path
         d="M 0.03,793.02 H 595.05 V 0 H 0.03 Z"
         id="path10741" />
    </clipPath>
    <clipPath
       id="clp116">
      <path
         d="M -1,794 H 596 V -2 H -1 Z"
         id="path10735" />
    </clipPath>
    <clipPath
       id="clp115">
      <path
         d="m 396.11,638.75 h 81.11 v -23.7 h -81.11 z"
         id="path10729" />
    </clipPath>
    <clipPath
       id="clp114">
      <path
         d="m 396.39,617.03 h 81.08 v 19.75 h -81.08 z"
         id="path10723" />
    </clipPath>
    <clipPath
       id="clp122">
      <path
         d="M 0.03,793.02 H 595.05 V 0 H 0.03 Z"
         id="path10774" />
    </clipPath>
    <clipPath
       id="clp121">
      <path
         d="M -1,794 H 596 V -2 H -1 Z"
         id="path10768" />
    </clipPath>
    <clipPath
       id="clp120">
      <path
         d="m 396.11,638.75 h 81.11 v -23.7 h -81.11 z"
         id="path10762" />
    </clipPath>
    <clipPath
       id="clp119">
      <path
         d="m 396.39,617.03 h 81.08 v 19.75 h -81.08 z"
         id="path10756" />
    </clipPath>
    <clipPath
       id="clp127">
      <path
         d="M 0.03,793.02 H 595.05 V 0 H 0.03 Z"
         id="path10807" />
    </clipPath>
    <clipPath
       id="clp126">
      <path
         d="M -1,794 H 596 V -2 H -1 Z"
         id="path10801" />
    </clipPath>
    <clipPath
       id="clp125">
      <path
         d="m 396.11,638.75 h 81.11 v -23.7 h -81.11 z"
         id="path10795" />
    </clipPath>
    <clipPath
       id="clp124">
      <path
         d="m 396.39,617.03 h 81.08 v 19.75 h -81.08 z"
         id="path10789" />
    </clipPath>
    <clipPath
       id="clp132">
      <path
         d="M 0.03,793.02 H 595.05 V 0 H 0.03 Z"
         id="path10840" />
    </clipPath>
    <clipPath
       id="clp131">
      <path
         d="M -1,794 H 596 V -2 H -1 Z"
         id="path10834" />
    </clipPath>
    <clipPath
       id="clp130">
      <path
         d="m 396.11,638.75 h 81.11 v -23.7 h -81.11 z"
         id="path10828" />
    </clipPath>
    <clipPath
       id="clp129">
      <path
         d="m 396.39,617.03 h 81.08 v 19.75 h -81.08 z"
         id="path10822" />
    </clipPath>
    <clipPath
       id="clp137">
      <path
         d="M 0.03,793.02 H 595.05 V 0 H 0.03 Z"
         id="path10873" />
    </clipPath>
    <clipPath
       id="clp136">
      <path
         d="M -1,794 H 596 V -2 H -1 Z"
         id="path10867" />
    </clipPath>
    <clipPath
       id="clp135">
      <path
         d="m 396.11,638.75 h 81.11 v -23.7 h -81.11 z"
         id="path10861" />
    </clipPath>
    <clipPath
       id="clp134">
      <path
         d="m 396.39,617.03 h 81.08 v 19.75 h -81.08 z"
         id="path10855" />
    </clipPath>
    <clipPath
       id="clp142">
      <path
         d="M 0.03,793.02 H 595.05 V 0 H 0.03 Z"
         id="path10906" />
    </clipPath>
    <clipPath
       id="clp141">
      <path
         d="M -1,794 H 596 V -2 H -1 Z"
         id="path10900" />
    </clipPath>
    <clipPath
       id="clp140">
      <path
         d="m 396.11,638.75 h 81.11 v -23.7 h -81.11 z"
         id="path10894" />
    </clipPath>
    <clipPath
       id="clp139">
      <path
         d="m 396.39,617.03 h 81.08 v 19.75 h -81.08 z"
         id="path10888" />
    </clipPath>
    <clipPath
       id="clp147">
      <path
         d="M 0.03,793.02 H 595.05 V 0 H 0.03 Z"
         id="path10939" />
    </clipPath>
    <clipPath
       id="clp146">
      <path
         d="M -1,794 H 596 V -2 H -1 Z"
         id="path10933" />
    </clipPath>
    <clipPath
       id="clp145">
      <path
         d="m 396.11,638.75 h 81.11 v -23.7 h -81.11 z"
         id="path10927" />
    </clipPath>
    <clipPath
       id="clp144">
      <path
         d="m 396.39,617.03 h 81.08 v 19.75 h -81.08 z"
         id="path10921" />
    </clipPath>
    <clipPath
       id="clp152">
      <path
         d="M 0.03,793.02 H 595.05 V 0 H 0.03 Z"
         id="path10972" />
    </clipPath>
    <clipPath
       id="clp151">
      <path
         d="M -1,794 H 596 V -2 H -1 Z"
         id="path10966" />
    </clipPath>
    <clipPath
       id="clp150">
      <path
         d="m 396.11,638.75 h 81.11 v -23.7 h -81.11 z"
         id="path10960" />
    </clipPath>
    <clipPath
       id="clp149">
      <path
         d="m 396.39,617.03 h 81.08 v 19.75 h -81.08 z"
         id="path10954" />
    </clipPath>
    <clipPath
       id="clp157">
      <path
         d="M 0.03,793.02 H 595.05 V 0 H 0.03 Z"
         id="path11005" />
    </clipPath>
    <clipPath
       id="clp156">
      <path
         d="M -1,794 H 596 V -2 H -1 Z"
         id="path10999" />
    </clipPath>
    <clipPath
       id="clp155">
      <path
         d="m 396.11,638.75 h 81.11 v -23.7 h -81.11 z"
         id="path10993" />
    </clipPath>
    <clipPath
       id="clp154">
      <path
         d="m 396.39,617.03 h 81.08 v 19.75 h -81.08 z"
         id="path10987" />
    </clipPath>
    <clipPath
       id="clp160">
      <path
         d="M 0.03,793.02 H 595.05 V 0 H 0.03 Z"
         id="path11054" />
    </clipPath>
    <clipPath
       id="clp159">
      <path
         d="M -1,794 H 596 V -2 H -1 Z"
         id="path11048" />
    </clipPath>
    <clipPath
       id="clp163">
      <path
         d="M 0.03,793.02 H 595.05 V 0 H 0.03 Z"
         id="path11075" />
    </clipPath>
    <clipPath
       id="clp162">
      <path
         d="M -1,794 H 596 V -2 H -1 Z"
         id="path11069" />
    </clipPath>
    <clipPath
       id="clp166">
      <path
         d="M 0.03,793.02 H 595.05 V 0 H 0.03 Z"
         id="path11096" />
    </clipPath>
    <clipPath
       id="clp165">
      <path
         d="M -1,794 H 596 V -2 H -1 Z"
         id="path11090" />
    </clipPath>
    <clipPath
       id="clp169">
      <path
         d="M 0.03,793.02 H 595.05 V 0 H 0.03 Z"
         id="path11117" />
    </clipPath>
    <clipPath
       id="clp168">
      <path
         d="M -1,794 H 596 V -2 H -1 Z"
         id="path11111" />
    </clipPath>
    <clipPath
       id="clp172">
      <path
         d="M 0.03,793.02 H 595.05 V 0 H 0.03 Z"
         id="path11138" />
    </clipPath>
    <clipPath
       id="clp171">
      <path
         d="M -1,794 H 596 V -2 H -1 Z"
         id="path11132" />
    </clipPath>
    <clipPath
       id="clp175">
      <path
         d="M 0.03,793.02 H 595.05 V 0 H 0.03 Z"
         id="path11159" />
    </clipPath>
    <clipPath
       id="clp174">
      <path
         d="M -1,794 H 596 V -2 H -1 Z"
         id="path11153" />
    </clipPath>
    <clipPath
       id="clp178">
      <path
         d="M 0.03,793.02 H 595.05 V 0 H 0.03 Z"
         id="path11180" />
    </clipPath>
    <clipPath
       id="clp177">
      <path
         d="M -1,794 H 596 V -2 H -1 Z"
         id="path11174" />
    </clipPath>
    <clipPath
       id="clp181">
      <path
         d="M 0.03,793.02 H 595.05 V 0 H 0.03 Z"
         id="path11201" />
    </clipPath>
    <clipPath
       id="clp180">
      <path
         d="M -1,794 H 596 V -2 H -1 Z"
         id="path11195" />
    </clipPath>
    <clipPath
       id="clp184">
      <path
         d="M 0.03,793.02 H 595.05 V 0 H 0.03 Z"
         id="path11222" />
    </clipPath>
    <clipPath
       id="clp183">
      <path
         d="M -1,794 H 596 V -2 H -1 Z"
         id="path11216" />
    </clipPath>
    <clipPath
       id="clp187">
      <path
         d="M 0.03,793.02 H 595.05 V 0 H 0.03 Z"
         id="path11243" />
    </clipPath>
    <clipPath
       id="clp186">
      <path
         d="M -1,794 H 596 V -2 H -1 Z"
         id="path11237" />
    </clipPath>
    <clipPath
       id="clp190">
      <path
         d="M 0.03,793.02 H 595.05 V 0 H 0.03 Z"
         id="path11264" />
    </clipPath>
    <clipPath
       id="clp189">
      <path
         d="M -1,794 H 596 V -2 H -1 Z"
         id="path11258" />
    </clipPath>
    <clipPath
       id="clp193">
      <path
         d="M 0.03,793.02 H 595.05 V 0 H 0.03 Z"
         id="path11285" />
    </clipPath>
    <clipPath
       id="clp192">
      <path
         d="M -1,794 H 596 V -2 H -1 Z"
         id="path11279" />
    </clipPath>
    <clipPath
       id="clp196">
      <path
         d="M 0.03,793.02 H 595.05 V 0 H 0.03 Z"
         id="path11306" />
    </clipPath>
    <clipPath
       id="clp195">
      <path
         d="M -1,794 H 596 V -2 H -1 Z"
         id="path11300" />
    </clipPath>
    <clipPath
       id="clp199">
      <path
         d="M 0.03,793.02 H 595.05 V 0 H 0.03 Z"
         id="path11327" />
    </clipPath>
    <clipPath
       id="clp198">
      <path
         d="M -1,794 H 596 V -2 H -1 Z"
         id="path11321" />
    </clipPath>
    <clipPath
       id="clp202">
      <path
         d="M 0.03,793.02 H 595.05 V 0 H 0.03 Z"
         id="path11348" />
    </clipPath>
    <clipPath
       id="clp201">
      <path
         d="M -1,794 H 596 V -2 H -1 Z"
         id="path11342" />
    </clipPath>
    <clipPath
       id="clp205">
      <path
         d="M 0.03,793.02 H 595.05 V 0 H 0.03 Z"
         id="path11369" />
    </clipPath>
    <clipPath
       id="clp204">
      <path
         d="M -1,794 H 596 V -2 H -1 Z"
         id="path11363" />
    </clipPath>
    <clipPath
       id="clp208">
      <path
         d="M 0.03,793.02 H 595.05 V 0 H 0.03 Z"
         id="path11390" />
    </clipPath>
    <clipPath
       id="clp207">
      <path
         d="M -1,794 H 596 V -2 H -1 Z"
         id="path11384" />
    </clipPath>
    <clipPath
       id="clp217">
      <path
         d="M 0.03,793.02 H 595.05 V 0 H 0.03 Z"
         id="path11453" />
    </clipPath>
    <clipPath
       id="clp216">
      <path
         d="M -1,794 H 596 V -2 H -1 Z"
         id="path11447" />
    </clipPath>
    <clipPath
       id="clp220">
      <path
         d="M 0.03,793.02 H 595.05 V 0 H 0.03 Z"
         id="path11474" />
    </clipPath>
    <clipPath
       id="clp219">
      <path
         d="M -1,794 H 596 V -2 H -1 Z"
         id="path11468" />
    </clipPath>
    <clipPath
       id="clp223">
      <path
         d="M 0.03,793.02 H 595.05 V 0 H 0.03 Z"
         id="path11495" />
    </clipPath>
    <clipPath
       id="clp222">
      <path
         d="M -1,794 H 596 V -2 H -1 Z"
         id="path11489" />
    </clipPath>
    <clipPath
       id="clp226">
      <path
         d="M 0.03,793.02 H 595.05 V 0 H 0.03 Z"
         id="path11516" />
    </clipPath>
    <clipPath
       id="clp225">
      <path
         d="M -1,794 H 596 V -2 H -1 Z"
         id="path11510" />
    </clipPath>
    <clipPath
       id="clp229">
      <path
         d="M 0.03,793.02 H 595.05 V 0 H 0.03 Z"
         id="path11537" />
    </clipPath>
    <clipPath
       id="clp228">
      <path
         d="M -1,794 H 596 V -2 H -1 Z"
         id="path11531" />
    </clipPath>
    <clipPath
       id="clp232">
      <path
         d="M 0.03,793.02 H 595.05 V 0 H 0.03 Z"
         id="path11558" />
    </clipPath>
    <clipPath
       id="clp231">
      <path
         d="M -1,794 H 596 V -2 H -1 Z"
         id="path11552" />
    </clipPath>
    <clipPath
       id="clp235">
      <path
         d="M 0.03,793.02 H 595.05 V 0 H 0.03 Z"
         id="path11579" />
    </clipPath>
    <clipPath
       id="clp234">
      <path
         d="M -1,794 H 596 V -2 H -1 Z"
         id="path11573" />
    </clipPath>
    <clipPath
       id="clp238">
      <path
         d="M 0.03,793.02 H 595.05 V 0 H 0.03 Z"
         id="path11600" />
    </clipPath>
    <clipPath
       id="clp237">
      <path
         d="M -1,794 H 596 V -2 H -1 Z"
         id="path11594" />
    </clipPath>
    <clipPath
       id="clp241">
      <path
         d="M 0.03,793.02 H 595.05 V 0 H 0.03 Z"
         id="path11621" />
    </clipPath>
    <clipPath
       id="clp240">
      <path
         d="M -1,794 H 596 V -2 H -1 Z"
         id="path11615" />
    </clipPath>
    <clipPath
       id="clp244">
      <path
         d="M 0.03,793.02 H 595.05 V 0 H 0.03 Z"
         id="path11642" />
    </clipPath>
    <clipPath
       id="clp243">
      <path
         d="M -1,794 H 596 V -2 H -1 Z"
         id="path11636" />
    </clipPath>
    <clipPath
       id="clp253">
      <path
         d="M 0.03,793.02 H 595.05 V 0 H 0.03 Z"
         id="path11705" />
    </clipPath>
    <clipPath
       id="clp252">
      <path
         d="M -1,794 H 596 V -2 H -1 Z"
         id="path11699" />
    </clipPath>
    <clipPath
       id="clp256">
      <path
         d="M 0.03,793.02 H 595.05 V 0 H 0.03 Z"
         id="path11726" />
    </clipPath>
    <clipPath
       id="clp255">
      <path
         d="M -1,794 H 596 V -2 H -1 Z"
         id="path11720" />
    </clipPath>
    <clipPath
       id="clp259">
      <path
         d="M 0.03,793.02 H 595.05 V 0 H 0.03 Z"
         id="path11747" />
    </clipPath>
    <clipPath
       id="clp258">
      <path
         d="M -1,794 H 596 V -2 H -1 Z"
         id="path11741" />
    </clipPath>
    <clipPath
       id="clp262">
      <path
         d="M 0.03,793.02 H 595.05 V 0 H 0.03 Z"
         id="path11768" />
    </clipPath>
    <clipPath
       id="clp261">
      <path
         d="M -1,794 H 596 V -2 H -1 Z"
         id="path11762" />
    </clipPath>
    <clipPath
       id="clp265">
      <path
         d="M 0.03,793.02 H 595.05 V 0 H 0.03 Z"
         id="path11789" />
    </clipPath>
    <clipPath
       id="clp264">
      <path
         d="M -1,794 H 596 V -2 H -1 Z"
         id="path11783" />
    </clipPath>
    <clipPath
       id="clp268">
      <path
         d="M 0.03,793.02 H 595.05 V 0 H 0.03 Z"
         id="path11810" />
    </clipPath>
    <clipPath
       id="clp267">
      <path
         d="M -1,794 H 596 V -2 H -1 Z"
         id="path11804" />
    </clipPath>
    <clipPath
       id="clp271">
      <path
         d="M 0.03,793.02 H 595.05 V 0 H 0.03 Z"
         id="path11831" />
    </clipPath>
    <clipPath
       id="clp270">
      <path
         d="M -1,794 H 596 V -2 H -1 Z"
         id="path11825" />
    </clipPath>
    <clipPath
       id="clp274">
      <path
         d="M 0.03,793.02 H 595.05 V 0 H 0.03 Z"
         id="path11852" />
    </clipPath>
    <clipPath
       id="clp273">
      <path
         d="M -1,794 H 596 V -2 H -1 Z"
         id="path11846" />
    </clipPath>
    <clipPath
       id="clp277">
      <path
         d="M 0.03,793.02 H 595.05 V 0 H 0.03 Z"
         id="path11873" />
    </clipPath>
    <clipPath
       id="clp276">
      <path
         d="M -1,794 H 596 V -2 H -1 Z"
         id="path11867" />
    </clipPath>
    <clipPath
       id="clp280">
      <path
         d="M 0.03,793.02 H 595.05 V 0 H 0.03 Z"
         id="path11894" />
    </clipPath>
    <clipPath
       id="clp279">
      <path
         d="M -1,794 H 596 V -2 H -1 Z"
         id="path11888" />
    </clipPath>
    <clipPath
       id="clp283">
      <path
         d="M 0.03,793.02 H 595.05 V 0 H 0.03 Z"
         id="path11915" />
    </clipPath>
    <clipPath
       id="clp282">
      <path
         d="M -1,794 H 596 V -2 H -1 Z"
         id="path11909" />
    </clipPath>
    <clipPath
       id="clp286">
      <path
         d="M 0.03,793.02 H 595.05 V 0 H 0.03 Z"
         id="path11936" />
    </clipPath>
    <clipPath
       id="clp285">
      <path
         d="M -1,794 H 596 V -2 H -1 Z"
         id="path11930" />
    </clipPath>
    <clipPath
       id="clp289">
      <path
         d="M 0.03,793.02 H 595.05 V 0 H 0.03 Z"
         id="path11957" />
    </clipPath>
    <clipPath
       id="clp288">
      <path
         d="M -1,794 H 596 V -2 H -1 Z"
         id="path11951" />
    </clipPath>
    <clipPath
       id="clp292">
      <path
         d="M 0.03,793.02 H 595.05 V 0 H 0.03 Z"
         id="path11978" />
    </clipPath>
    <clipPath
       id="clp291">
      <path
         d="M -1,794 H 596 V -2 H -1 Z"
         id="path11972" />
    </clipPath>
    <clipPath
       id="clp295">
      <path
         d="M 0.03,793.02 H 595.05 V 0 H 0.03 Z"
         id="path11999" />
    </clipPath>
    <clipPath
       id="clp294">
      <path
         d="M -1,794 H 596 V -2 H -1 Z"
         id="path11993" />
    </clipPath>
    <clipPath
       id="clp298">
      <path
         d="M 0.03,793.02 H 595.05 V 0 H 0.03 Z"
         id="path12020" />
    </clipPath>
    <clipPath
       id="clp297">
      <path
         d="M -1,794 H 596 V -2 H -1 Z"
         id="path12014" />
    </clipPath>
    <clipPath
       id="clp301">
      <path
         d="M 0.03,793.02 H 595.05 V 0 H 0.03 Z"
         id="path12041" />
    </clipPath>
    <clipPath
       id="clp300">
      <path
         d="M -1,794 H 596 V -2 H -1 Z"
         id="path12035" />
    </clipPath>
    <clipPath
       id="clp304">
      <path
         d="M 0.03,793.02 H 595.05 V 0 H 0.03 Z"
         id="path12062" />
    </clipPath>
    <clipPath
       id="clp303">
      <path
         d="M -1,794 H 596 V -2 H -1 Z"
         id="path12056" />
    </clipPath>
    <clipPath
       id="clp307">
      <path
         d="M 0.03,793.02 H 595.05 V 0 H 0.03 Z"
         id="path12083" />
    </clipPath>
    <clipPath
       id="clp306">
      <path
         d="M -1,794 H 596 V -2 H -1 Z"
         id="path12077" />
    </clipPath>
    <clipPath
       id="clp310">
      <path
         d="M 0.03,793.02 H 595.05 V 0 H 0.03 Z"
         id="path12104" />
    </clipPath>
    <clipPath
       id="clp309">
      <path
         d="M -1,794 H 596 V -2 H -1 Z"
         id="path12098" />
    </clipPath>
    <clipPath
       id="clp313">
      <path
         d="M 0.03,793.02 H 595.05 V 0 H 0.03 Z"
         id="path12125" />
    </clipPath>
    <clipPath
       id="clp312">
      <path
         d="M -1,794 H 596 V -2 H -1 Z"
         id="path12119" />
    </clipPath>
    <clipPath
       id="clp316">
      <path
         d="M 0.03,793.02 H 595.05 V 0 H 0.03 Z"
         id="path12146" />
    </clipPath>
    <clipPath
       id="clp315">
      <path
         d="M -1,794 H 596 V -2 H -1 Z"
         id="path12140" />
    </clipPath>
    <clipPath
       id="clp319">
      <path
         d="M 0.03,793.02 H 595.05 V 0 H 0.03 Z"
         id="path12167" />
    </clipPath>
    <clipPath
       id="clp318">
      <path
         d="M -1,794 H 596 V -2 H -1 Z"
         id="path12161" />
    </clipPath>
    <clipPath
       id="clp322">
      <path
         d="M 0.03,793.02 H 595.05 V 0 H 0.03 Z"
         id="path12188" />
    </clipPath>
    <clipPath
       id="clp321">
      <path
         d="M -1,794 H 596 V -2 H -1 Z"
         id="path12182" />
    </clipPath>
    <clipPath
       id="clp325">
      <path
         d="M 0.03,793.02 H 595.05 V 0 H 0.03 Z"
         id="path12209" />
    </clipPath>
    <clipPath
       id="clp324">
      <path
         d="M -1,794 H 596 V -2 H -1 Z"
         id="path12203" />
    </clipPath>
    <clipPath
       id="clp328">
      <path
         d="M 0.03,793.02 H 595.05 V 0 H 0.03 Z"
         id="path12230" />
    </clipPath>
    <clipPath
       id="clp327">
      <path
         d="M -1,794 H 596 V -2 H -1 Z"
         id="path12224" />
    </clipPath>
    <clipPath
       id="clp331">
      <path
         d="M 0.03,793.02 H 595.05 V 0 H 0.03 Z"
         id="path12251" />
    </clipPath>
    <clipPath
       id="clp330">
      <path
         d="M -1,794 H 596 V -2 H -1 Z"
         id="path12245" />
    </clipPath>
    <clipPath
       id="clp334">
      <path
         d="M 0.03,793.02 H 595.05 V 0 H 0.03 Z"
         id="path12272" />
    </clipPath>
    <clipPath
       id="clp333">
      <path
         d="M -1,794 H 596 V -2 H -1 Z"
         id="path12266" />
    </clipPath>
    <clipPath
       id="clp337">
      <path
         d="M 0.03,793.02 H 595.05 V 0 H 0.03 Z"
         id="path12293" />
    </clipPath>
    <clipPath
       id="clp336">
      <path
         d="M -1,794 H 596 V -2 H -1 Z"
         id="path12287" />
    </clipPath>
    <clipPath
       id="clp340">
      <path
         d="M 0.03,793.02 H 595.05 V 0 H 0.03 Z"
         id="path12314" />
    </clipPath>
    <clipPath
       id="clp339">
      <path
         d="M -1,794 H 596 V -2 H -1 Z"
         id="path12308" />
    </clipPath>
    <clipPath
       id="clp343">
      <path
         d="M 0.03,793.02 H 595.05 V 0 H 0.03 Z"
         id="path12335" />
    </clipPath>
    <clipPath
       id="clp342">
      <path
         d="M -1,794 H 596 V -2 H -1 Z"
         id="path12329" />
    </clipPath>
    <clipPath
       id="clp346">
      <path
         d="M 0.03,793.02 H 595.05 V 0 H 0.03 Z"
         id="path12356" />
    </clipPath>
    <clipPath
       id="clp345">
      <path
         d="M -1,794 H 596 V -2 H -1 Z"
         id="path12350" />
    </clipPath>
    <clipPath
       id="clp349">
      <path
         d="M 0.03,793.02 H 595.05 V 0 H 0.03 Z"
         id="path12377" />
    </clipPath>
    <clipPath
       id="clp348">
      <path
         d="M -1,794 H 596 V -2 H -1 Z"
         id="path12371" />
    </clipPath>
    <clipPath
       id="clp352">
      <path
         d="M 0.03,793.02 H 595.05 V 0 H 0.03 Z"
         id="path12398" />
    </clipPath>
    <clipPath
       id="clp351">
      <path
         d="M -1,794 H 596 V -2 H -1 Z"
         id="path12392" />
    </clipPath>
    <clipPath
       id="clp355">
      <path
         d="M 0.03,793.02 H 595.05 V 0 H 0.03 Z"
         id="path12419" />
    </clipPath>
    <clipPath
       id="clp354">
      <path
         d="M -1,794 H 596 V -2 H -1 Z"
         id="path12413" />
    </clipPath>
    <clipPath
       id="clipPath20771">
      <path
         d="M 0.03,793.02 H 595.05 V 0 H 0.03 Z"
         id="path20773" />
    </clipPath>
    <clipPath
       id="clipPath20779">
      <path
         d="M 0.03,793.02 H 595.05 V 0 H 0.03 Z"
         id="path20781" />
    </clipPath>
    <clipPath
       id="clipPath20787">
      <path
         d="M 0.03,793.02 H 595.05 V 0 H 0.03 Z"
         id="path20789" />
    </clipPath>
    <clipPath
       id="clipPath20795">
      <path
         d="M 0.03,793.02 H 595.05 V 0 H 0.03 Z"
         id="path20797" />
    </clipPath>
    <clipPath
       id="clipPath20803">
      <path
         d="M 0.03,793.02 H 595.05 V 0 H 0.03 Z"
         id="path20805" />
    </clipPath>
    <clipPath
       id="clipPath20811">
      <path
         d="M 0.03,793.02 H 595.05 V 0 H 0.03 Z"
         id="path20813" />
    </clipPath>
    <clipPath
       id="clipPath20819">
      <path
         d="M 0.03,793.02 H 595.05 V 0 H 0.03 Z"
         id="path20821" />
    </clipPath>
    <clipPath
       id="clipPath20827">
      <path
         d="M 0.03,793.02 H 595.05 V 0 H 0.03 Z"
         id="path20829" />
    </clipPath>
    <clipPath
       id="clipPath20835">
      <path
         d="M 0.03,793.02 H 595.05 V 0 H 0.03 Z"
         id="path20837" />
    </clipPath>
    <clipPath
       id="clipPath20843">
      <path
         d="M 0.03,793.02 H 595.05 V 0 H 0.03 Z"
         id="path20845" />
    </clipPath>
    <clipPath
       id="clipPath20851">
      <path
         d="M 0.03,793.02 H 595.05 V 0 H 0.03 Z"
         id="path20853" />
    </clipPath>
    <clipPath
       id="clipPath20763">
      <path
         d="M 0.03,793.02 H 595.05 V 0 H 0.03 Z"
         id="path20765" />
    </clipPath>
    <clipPath
       id="clipPath20755">
      <path
         d="M 0.03,793.02 H 595.05 V 0 H 0.03 Z"
         id="path20757" />
    </clipPath>
    <clipPath
       id="clipPath20747">
      <path
         d="M 0.03,793.02 H 595.05 V 0 H 0.03 Z"
         id="path20749" />
    </clipPath>
    <clipPath
       id="clipPath20739">
      <path
         d="M 0.03,793.02 H 595.05 V 0 H 0.03 Z"
         id="path20741" />
    </clipPath>
    <clipPath
       id="clipPath20731">
      <path
         d="M 0.03,793.02 H 595.05 V 0 H 0.03 Z"
         id="path20733" />
    </clipPath>
    <clipPath
       id="clipPath20723">
      <path
         d="M 0.03,793.02 H 595.05 V 0 H 0.03 Z"
         id="path20725" />
    </clipPath>
    <clipPath
       id="clipPath20715">
      <path
         d="M 0.03,793.02 H 595.05 V 0 H 0.03 Z"
         id="path20717" />
    </clipPath>
    <clipPath
       id="clipPath20707">
      <path
         d="M 0.03,793.02 H 595.05 V 0 H 0.03 Z"
         id="path20709" />
    </clipPath>
    <clipPath
       id="clipPath20699">
      <path
         d="M 0.03,793.02 H 595.05 V 0 H 0.03 Z"
         id="path20701" />
    </clipPath>
    <clipPath
       id="clipPath20691">
      <path
         d="M 0.03,793.02 H 595.05 V 0 H 0.03 Z"
         id="path20693" />
    </clipPath>
    <clipPath
       id="clipPath20683">
      <path
         d="M 0.03,793.02 H 595.05 V 0 H 0.03 Z"
         id="path20685" />
    </clipPath>
    <clipPath
       id="clipPath20675">
      <path
         d="M 0.03,793.02 H 595.05 V 0 H 0.03 Z"
         id="path20677" />
    </clipPath>
    <clipPath
       id="clipPath20667">
      <path
         d="M 0.03,793.02 H 595.05 V 0 H 0.03 Z"
         id="path20669" />
    </clipPath>
    <clipPath
       id="clipPath20659">
      <path
         d="M 0.03,793.02 H 595.05 V 0 H 0.03 Z"
         id="path20661" />
    </clipPath>
    <clipPath
       id="clipPath20651">
      <path
         d="M 0.03,793.02 H 595.05 V 0 H 0.03 Z"
         id="path20653" />
    </clipPath>
    <clipPath
       id="clipPath20643">
      <path
         d="M 0.03,793.02 H 595.05 V 0 H 0.03 Z"
         id="path20645" />
    </clipPath>
    <clipPath
       id="clipPath20635">
      <path
         d="M 0.03,793.02 H 595.05 V 0 H 0.03 Z"
         id="path20637" />
    </clipPath>
    <clipPath
       id="clipPath20627">
      <path
         d="M 0.03,793.02 H 595.05 V 0 H 0.03 Z"
         id="path20629" />
    </clipPath>
    <clipPath
       id="clipPath20619">
      <path
         d="M 0.03,793.02 H 595.05 V 0 H 0.03 Z"
         id="path20621" />
    </clipPath>
    <clipPath
       id="clipPath20611">
      <path
         d="M 0.03,793.02 H 595.05 V 0 H 0.03 Z"
         id="path20613" />
    </clipPath>
    <clipPath
       id="clipPath20603">
      <path
         d="M 0.03,793.02 H 595.05 V 0 H 0.03 Z"
         id="path20605" />
    </clipPath>
    <clipPath
       id="clipPath20595">
      <path
         d="M 0.03,793.02 H 595.05 V 0 H 0.03 Z"
         id="path20597" />
    </clipPath>
    <clipPath
       id="clipPath20587">
      <path
         d="M 0.03,793.02 H 595.05 V 0 H 0.03 Z"
         id="path20589" />
    </clipPath>
    <clipPath
       id="clipPath20579">
      <path
         d="M 0.03,793.02 H 595.05 V 0 H 0.03 Z"
         id="path20581" />
    </clipPath>
    <clipPath
       id="clipPath20571">
      <path
         d="M 0.03,793.02 H 595.05 V 0 H 0.03 Z"
         id="path20573" />
    </clipPath>
    <clipPath
       id="clipPath20563">
      <path
         d="M 0.03,793.02 H 595.05 V 0 H 0.03 Z"
         id="path20565" />
    </clipPath>
    <clipPath
       id="clipPath20555">
      <path
         d="M 0.03,793.02 H 595.05 V 0 H 0.03 Z"
         id="path20557" />
    </clipPath>
    <clipPath
       id="clipPath20547">
      <path
         d="M 0.03,793.02 H 595.05 V 0 H 0.03 Z"
         id="path20549" />
    </clipPath>
    <clipPath
       id="clipPath20539">
      <path
         d="M 0.03,793.02 H 595.05 V 0 H 0.03 Z"
         id="path20541" />
    </clipPath>
    <clipPath
       id="clipPath20531">
      <path
         d="M 0.03,793.02 H 595.05 V 0 H 0.03 Z"
         id="path20533" />
    </clipPath>
    <clipPath
       id="clipPath20523">
      <path
         d="M 0.03,793.02 H 595.05 V 0 H 0.03 Z"
         id="path20525" />
    </clipPath>
    <clipPath
       id="clipPath20515">
      <path
         d="M 0.03,793.02 H 595.05 V 0 H 0.03 Z"
         id="path20517" />
    </clipPath>
    <clipPath
       id="clipPath20507">
      <path
         d="M 0.03,793.02 H 595.05 V 0 H 0.03 Z"
         id="path20509" />
    </clipPath>
    <clipPath
       id="clipPath20499">
      <path
         d="M 0.03,793.02 H 595.05 V 0 H 0.03 Z"
         id="path20501" />
    </clipPath>
    <clipPath
       id="clipPath20491">
      <path
         d="M 0.03,793.02 H 595.05 V 0 H 0.03 Z"
         id="path20493" />
    </clipPath>
    <clipPath
       id="clipPath20483">
      <path
         d="M 0.03,793.02 H 595.05 V 0 H 0.03 Z"
         id="path20485" />
    </clipPath>
    <clipPath
       id="clipPath20475">
      <path
         d="M 0.03,793.02 H 595.05 V 0 H 0.03 Z"
         id="path20477" />
    </clipPath>
    <clipPath
       id="clipPath20467">
      <path
         d="M 0.03,793.02 H 595.05 V 0 H 0.03 Z"
         id="path20469" />
    </clipPath>
    <clipPath
       id="clipPath20459">
      <path
         d="M 0.03,793.02 H 595.05 V 0 H 0.03 Z"
         id="path20461" />
    </clipPath>
    <clipPath
       id="clipPath20451">
      <path
         d="M 0.03,793.02 H 595.05 V 0 H 0.03 Z"
         id="path20453" />
    </clipPath>
    <clipPath
       id="clipPath20443">
      <path
         d="M 0.03,793.02 H 595.05 V 0 H 0.03 Z"
         id="path20445" />
    </clipPath>
    <clipPath
       id="clipPath20435">
      <path
         d="M 0.03,793.02 H 595.05 V 0 H 0.03 Z"
         id="path20437" />
    </clipPath>
    <clipPath
       id="clipPath20427">
      <path
         d="M 0.03,793.02 H 595.05 V 0 H 0.03 Z"
         id="path20429" />
    </clipPath>
    <clipPath
       id="clipPath20419">
      <path
         d="M 0.03,793.02 H 595.05 V 0 H 0.03 Z"
         id="path20421" />
    </clipPath>
    <clipPath
       id="clipPath20411">
      <path
         d="M 0.03,793.02 H 595.05 V 0 H 0.03 Z"
         id="path20413" />
    </clipPath>
    <clipPath
       id="clipPath20403">
      <path
         d="M 0.03,793.02 H 595.05 V 0 H 0.03 Z"
         id="path20405" />
    </clipPath>
    <clipPath
       id="clipPath20395">
      <path
         d="M 0.03,793.02 H 595.05 V 0 H 0.03 Z"
         id="path20397" />
    </clipPath>
    <clipPath
       id="clipPath20387">
      <path
         d="M 0.03,793.02 H 595.05 V 0 H 0.03 Z"
         id="path20389" />
    </clipPath>
    <clipPath
       id="clipPath20379">
      <path
         d="M 0.03,793.02 H 595.05 V 0 H 0.03 Z"
         id="path20381" />
    </clipPath>
    <clipPath
       id="clipPath20371">
      <path
         d="M 0.03,793.02 H 595.05 V 0 H 0.03 Z"
         id="path20373" />
    </clipPath>
    <clipPath
       id="clipPath20363">
      <path
         d="M 0.03,793.02 H 595.05 V 0 H 0.03 Z"
         id="path20365" />
    </clipPath>
  </defs>
  <g
     inkscape:label="Layer 1"
     inkscape:groupmode="layer"
     id="layer1"
     transform="translate(30.191949,-187.39602)">
    <path
       id="Layer"
       fill-rule="evenodd"
       class="shp0"
       d="m 110.50411,187.39602 h 0.71975 c 2.81246,0.0454 5.78797,0.95904 7.66069,3.16558 1.61029,1.80615 2.19689,4.28767 2.18339,6.65631 -0.0492,2.89928 -0.70625,5.7677 -1.728,8.47499 -1.24462,3.39134 -2.99674,6.57526 -4.99874,9.57199 -3.35468,5.05374 -7.40693,9.61541 -11.8181,13.76318 -9.993616,9.49384 -21.634187,17.38512 -34.505873,22.40316 -4.96111,1.97691 -10.125801,3.43572 -15.360922,4.48063 -3.595889,4.93795 -7.268966,9.8267 -11.230522,14.48197 -4.360028,5.18977 -9.121423,10.06019 -14.371017,14.3575 3.267851,1.73089 6.720948,3.24567 10.396916,3.82359 3.222507,0.51329 6.558859,0.5268 9.734087,-0.27787 5.784104,-1.34013 10.962302,-4.47195 15.690889,-7.96653 5.719462,-4.26451 10.786705,-9.31245 15.78834,-14.37487 2.336798,1.80711 4.646579,3.64799 6.980485,5.45896 -0.912721,1.17226 -1.727033,2.43135 -2.79702,3.47239 -1.189624,1.24365 -2.325217,2.53941 -3.533176,3.76473 -2.554845,2.24611 -5.047946,4.57036 -7.714711,6.68911 -0.682128,0.55574 -1.349785,1.12981 -2.029984,1.68747 -0.979293,0.79598 -2.130325,1.34111 -3.123129,2.11875 -2.719831,1.83606 -5.633593,3.3624 -8.578227,4.79709 -5.5593,2.59537 -11.609696,4.37547 -17.784555,4.36196 -3.713597,0.0733 -7.427194,-0.47758 -10.993175,-1.49161 -4.110139,-1.2369 -7.987755,-3.17137 -11.562421,-5.53615 -3.484935,1.88816 -7.144501,3.4695 -10.9478289,4.59738 -3.169438,0.91272 -6.39580077,1.69712 -9.6877719,2.00682 -3.0276098,0.4033 -6.0870585,0.47952 -9.1358942,0.41005 -3.825517,-0.26436 -7.667436,-1.11243 -11.065538,-2.93691 -1.786849,-1.01307 -3.48204,-2.27312 -4.67456,-3.97121 -1.442408,-1.9171 -2.155411,-4.30889 -2.209441,-6.69393 v -1.34014 c 0.203577,-2.34451 1.132701,-4.60412 2.604053,-6.43342 2.008758,-2.4767 4.787444,-4.2539 7.769708,-5.32582 3.207066,-1.29286 6.682353,-1.73861 10.1142231,-1.86886 6.6910369,-0.0878 13.3492699,1.50801 19.4093135,4.30503 2.8201734,1.25523 5.5043064,2.80474 8.0224884,4.5887 7.399218,-6.02435 13.677312,-13.27595 19.559826,-20.75139 -8.47885,0.42838 -17.186365,-0.23541 -25.143244,-3.38459 -4.296352,-1.64791 -8.3534259,-4.08602 -11.49488484,-7.48412 -1.32759411,-1.30926 -2.39951086,-2.85587 -3.26977996,-4.49896 -2.1033109,-3.92779 -2.6551885,-8.55604 -2.0232304,-12.9315 0.7718569,-5.11742 3.2678501,-9.8354 6.532806,-13.79599 4.6871019,-5.68473 10.8542422,-9.97529 17.4082722,-13.24121 6.979519,-3.40678 14.52539,-5.71174 22.257466,-6.5357 1.296721,2.93113 2.733341,5.79568 4.03199,8.72392 -6.59552,0.80369 -13.105168,2.51046 -19.162317,5.25827 -4.004976,1.82641 -7.821811,4.09471 -11.232454,6.88401 -2.534585,2.16313 -4.854981,4.63307 -6.5569257,7.51499 -1.4645971,2.54231 -2.4689779,5.45607 -2.2692601,8.42579 0.122532,3.27267 1.8495619,6.29932 4.1931138,8.51165 3.455992,3.26496 8.014772,5.06724 12.589955,6.10829 2.264436,0.47469 4.553956,0.85193 6.866636,0.98411 4.958215,0.45636 9.944414,0.006 14.867898,-0.62134 0.981223,-1.54275 2.116819,-2.97744 3.167509,-4.47388 3.978925,-5.44063 7.968461,-10.87353 12.119122,-16.18681 7.239056,-9.25457 14.842813,-18.30073 23.609181,-26.15824 4.794199,-4.22206 9.939592,-8.14792 15.767113,-10.83205 3.433801,-1.59871 7.160911,-2.61177 10.957481,-2.73527 z m -8.44798,13.02123 c -2.809559,1.62476 -5.364408,3.64413 -7.83242,5.74069 -7.780321,6.71998 -14.720282,14.34786 -21.24344,22.27966 -4.04646,4.96111 -7.966529,10.02835 -11.69267,15.23646 3.439586,-1.14138 6.803918,-2.51529 10.008093,-4.21048 3.439587,-1.69616 6.685249,-3.75026 9.845037,-5.91532 7.610511,-5.27372 14.486796,-11.629 20.24967,-18.88252 1.93061,-2.46126 3.73386,-5.03348 5.23995,-7.77936 0.90597,-1.72703 1.78299,-3.51484 2.11296,-5.45606 0.1013,-0.68213 0.22673,-1.45303 -0.1949,-2.0599 -0.39654,-0.6281 -1.22242,-0.75835 -1.90648,-0.68888 -1.64116,0.21515 -3.1569,0.93684 -4.5858,1.73571 z m -116.402816,78.86258 c -1.647915,0.46794 -3.358543,1.13174 -4.469053,2.50178 -1.019816,1.14042 -1.231112,2.93789 -0.412944,4.24715 0.455396,0.66572 1.065163,1.23304 1.78492,1.6045 1.686508,0.94649 3.62001,1.34496 5.530357,1.50415 3.285217,0.21323 6.5935896,-0.0347 9.8112696,-0.7323 3.5949248,-0.76221 7.0412668,-2.10717 10.3467459,-3.69141 -0.405225,-0.29909 -0.8114163,-0.59915 -1.2465505,-0.8529 -2.6976401,-1.58906 -5.5506175,-2.94656 -8.5666495,-3.81008 -4.1062799,-1.27067 -8.5570015,-1.74825 -12.7780955,-0.77089 z"
       style="fill:#cc0000;fill-opacity:1;stroke-width:0.096482" />
  </g>
  <style
     id="style2610">
		tspan { white-space:pre }
		.shp0 { fill: #d52b1e } 
	</style>
</svg>
